<?xml version="1.0" encoding="UTF-8" standalone="no"?>
<svg width="100px" height="71px" viewBox="0 0 100 71" version="1.1" xmlns="http://www.w3.org/2000/svg" xmlns:xlink="http://www.w3.org/1999/xlink">
    <!-- Generator: Sketch 40.1 (33804) - http://www.bohemiancoding.com/sketch -->
    <title>brand</title>
    <desc>Created with Sketch.</desc>
    <defs>
        <path d="M13.4658667,4.25160968 C15.0039722,1.70409109 17.8047185,0 21.0047291,0 C23.9159327,0 26.4966853,1.41037437 28.0969154,3.58308657 C30.9915513,2.86591229 34.1807444,3.6351507 36.4434981,5.8908018 C38.5020239,7.94287437 39.3264705,10.7593009 38.9168293,13.4236245 C41.4723646,14.956905 43.1818182,17.7488654 43.1818182,20.9388377 C43.1818182,23.8409089 41.7670056,26.4135657 39.5874562,28.0087758 C40.3068873,30.8943313 39.5352282,34.0735201 37.2724789,36.3291756 C35.2139487,38.3812437 32.3886593,39.2031041 29.7159515,38.7947479 C28.177846,41.3422643 25.3770997,43.0463576 22.1770891,43.0463576 C19.2658854,43.0463576 16.6851329,41.6359841 15.0849028,39.4632711 C12.1902669,40.1804462 9.00107375,39.4112069 6.73832004,37.1555558 C4.67979429,35.1034832 3.85534763,32.2870567 4.26498887,29.6227331 C1.70945582,28.0894526 0,25.2974922 0,22.1075199 C0,19.2054487 1.41481173,16.6327919 3.59436201,15.0375818 C2.87493001,12.1520263 3.64658998,8.97283755 5.90933929,6.71718205 C7.96786943,4.66511387 10.7931589,3.84325348 13.4658667,4.25160968 L13.4658667,4.25160968 Z M19.666009,17.4292462 C20.1025155,17.4957177 20.549584,17.5301899 21.0047291,17.5301899 C21.7388994,17.5301899 22.4520471,17.4404953 23.1337602,17.2714901 C23.3952658,17.6261833 23.6869369,17.9656916 24.0087737,18.2865188 C24.5279072,18.8040239 25.0958054,19.24329 25.6977247,19.6043171 C25.6310441,20.0394543 25.5964634,20.4851203 25.5964634,20.9388377 C25.5964634,21.6707048 25.6864402,22.3816154 25.8559773,23.06119 C25.5001679,23.3218753 25.1595911,23.6126314 24.8377544,23.9334586 C24.3186208,24.4509636 23.8779724,25.0170803 23.5158091,25.6171114 C23.0793026,25.55064 22.6322342,25.5161677 22.1770891,25.5161677 C21.4429188,25.5161677 20.7297711,25.6058623 20.048058,25.7748675 C19.7865524,25.4201743 19.4948813,25.080666 19.1730445,24.7598388 C18.6539109,24.2423338 18.0860128,23.8030676 17.4840935,23.4420405 C17.5507741,23.0069033 17.5853548,22.5612373 17.5853548,22.1075199 C17.5853548,21.3756528 17.495378,20.6647422 17.3258409,19.9851676 C17.6816503,19.7244824 18.022227,19.4337262 18.3440638,19.112899 C18.8631974,18.595394 19.3038458,18.0292773 19.666009,17.4292462 L19.666009,17.4292462 Z" id="path-1"></path>
    </defs>
    <g id="Page-1" stroke="none" stroke-width="1" fill="none" fill-rule="evenodd">
        <g id="brand">
            <g transform="translate(3.000000, 2.000000)">
                <path d="M5.61068448,55.7164476 C6.12094094,55.8677832 6.56582729,56.0716629 6.94535689,56.3280927 L6.50257457,57.299158 C6.11461099,57.0427282 5.70029739,56.8514597 5.25962136,56.7253466 C4.81894533,56.5992336 4.4004148,56.5361781 4.00401722,56.5361781 C3.41785485,56.5361781 2.94977537,56.6412707 2.59976474,56.851459 C2.24975411,57.0616474 2.07475142,57.3580085 2.07475142,57.7405513 C2.07475142,58.0684451 2.17174086,58.339584 2.36572266,58.5539761 C2.55970445,58.7683682 2.80323229,58.9354654 3.09631348,59.0552728 C3.38939466,59.1750801 3.79105746,59.3127514 4.30131392,59.4682908 C4.92121226,59.6658679 5.4198645,59.8508308 5.7972856,60.0231853 C6.1747067,60.1955397 6.49730202,60.4498638 6.76508123,60.7861651 C7.03286045,61.1224665 7.16674805,61.5659573 7.16674805,62.1166507 C7.16674805,62.616899 7.03075198,63.0540842 6.75875577,63.4282194 C6.48675956,63.8023547 6.10196449,64.0924102 5.60435902,64.2983948 C5.10675355,64.5043794 4.53325076,64.6073701 3.88383345,64.6073701 C3.23441614,64.6073701 2.60398477,64.4823099 1.99252042,64.2321858 C1.38105607,63.9820617 0.856048002,63.6468163 0.417480469,63.2264396 L0.879239169,62.2995137 C1.29250473,62.7030753 1.77007231,63.0162512 2.31195623,63.2390509 C2.85384016,63.4618505 3.38201092,63.5732487 3.89648437,63.5732487 C4.55433568,63.5732487 5.07301834,63.4460866 5.45254794,63.1917587 C5.83207754,62.9374308 6.02183949,62.5958799 6.02183949,62.1670957 C6.02183949,61.8307943 5.92274158,61.5533499 5.72454279,61.334754 C5.526344,61.1161581 5.2807077,60.9459081 4.98762651,60.8239989 C4.69454532,60.7020896 4.29288252,60.5654692 3.78262607,60.4141336 C3.17116172,60.2333717 2.67461794,60.058918 2.29297985,59.8907673 C1.91134175,59.7226166 1.58874643,59.4724962 1.32518422,59.1403986 C1.061622,58.8083011 0.929842862,58.3711159 0.929842862,57.8288299 C0.929842862,57.3622118 1.05951353,56.9523507 1.31885875,56.5992343 C1.57820398,56.2461179 1.94613132,55.9728771 2.42265181,55.7795038 C2.8991723,55.5861306 3.4473735,55.4894454 4.06727184,55.4894454 C4.58596229,55.4894454 5.10042802,55.565112 5.61068448,55.7164476 L5.61068448,55.7164476 Z M13.9147465,56.5235668 L13.9147465,59.4935133 L18.4880553,59.4935133 L18.4880553,60.4898011 L13.9147465,60.4898011 L13.9147465,63.5858599 L19.2028324,63.5858599 L19.2028324,64.5695364 L12.8773708,64.5695364 L12.8773708,55.5272791 L19.032045,55.5272791 L19.032045,56.5235668 L13.9147465,56.5235668 Z M31.378077,64.5695364 L25.9381799,57.3117692 L25.9381799,64.5695364 L24.9008042,64.5695364 L24.9008042,55.5272791 L25.9761327,55.5272791 L31.4160297,62.7976575 L31.4160297,55.5272791 L32.4407545,55.5272791 L32.4407545,64.5695364 L31.378077,64.5695364 Z M45.2675216,64.5695364 L39.8276246,57.3117692 L39.8276246,64.5695364 L38.7902489,64.5695364 L38.7902489,55.5272791 L39.8655773,55.5272791 L45.3054744,62.7976575 L45.3054744,55.5272791 L46.3301991,55.5272791 L46.3301991,64.5695364 L45.2675216,64.5695364 Z M58.9608769,56.1105488 C59.6862001,56.5162123 60.2607572,57.0658466 60.6845652,57.7594681 C61.1083733,58.4530897 61.3202741,59.2160619 61.3202741,60.0484078 C61.3202741,60.8849574 61.1083733,61.6521333 60.6845652,62.3499586 C60.2607572,63.0477839 59.6862001,63.600571 58.9608769,64.0083364 C58.2355537,64.4161017 57.4427704,64.6199814 56.5825033,64.6199814 C55.7095853,64.6199814 54.9104766,64.4161017 54.1851534,64.0083364 C53.4598301,63.600571 52.8852731,63.0477839 52.4614651,62.3499586 C52.037657,61.6521333 51.8257562,60.8849574 51.8257562,60.0484078 C51.8257562,59.2118581 52.037657,58.4457331 52.4614651,57.7500097 C52.8852731,57.0542863 53.4598301,56.5057029 54.1851534,56.1042432 C54.9104766,55.7027835 55.7095853,55.5020566 56.5825033,55.5020566 C57.4427704,55.5020566 58.2355537,55.7048853 58.9608769,56.1105488 L58.9608769,56.1105488 Z M54.7354685,56.9649602 C54.1703911,57.2844464 53.7191794,57.7153261 53.3818197,58.257612 C53.0444601,58.7998979 52.8757828,59.3968239 52.8757828,60.0484078 C52.8757828,60.7041954 53.0444601,61.305325 53.3818197,61.8518147 C53.7191794,62.3983044 54.1703911,62.830235 54.7354685,63.1476194 C55.3005459,63.4650038 55.916218,63.6236936 56.5825033,63.6236936 C57.2487886,63.6236936 57.861298,63.4650038 58.4200499,63.1476194 C58.9788019,62.830235 59.4247424,62.3983044 59.7578851,61.8518147 C60.0910277,61.305325 60.2575966,60.7041954 60.2575966,60.0484078 C60.2575966,59.3926201 60.0910277,58.7946432 59.7578851,58.2544592 C59.4247424,57.7142752 58.9777476,57.2844464 58.4168872,56.9649602 C57.8560268,56.6454739 57.2445716,56.4857331 56.5825033,56.4857331 C55.916218,56.4857331 55.3005459,56.6454739 54.7354685,56.9649602 L54.7354685,56.9649602 Z M72.774416,56.1294657 C73.2931065,56.5309254 73.5524478,57.0847634 73.5524478,57.7909962 C73.5524478,58.3248746 73.4059094,58.7704672 73.1128282,59.1277874 C72.819747,59.4851076 72.4096504,59.7184132 71.8825259,59.8277111 C72.5403772,59.9243977 73.050626,60.1745181 73.4132876,60.5780797 C73.7759493,60.9816413 73.9572773,61.4944932 73.9572773,62.1166507 C73.9572773,62.8817363 73.6673633,63.481815 73.0875264,63.9169049 C72.5076895,64.3519948 71.7075266,64.5695364 70.6870137,64.5695364 L66.8031802,64.5695364 L66.8031802,55.5272791 L70.6237591,55.5272791 C71.5388471,55.5272791 72.2557256,55.7280059 72.774416,56.1294657 L72.774416,56.1294657 Z M67.8405559,59.4304571 L70.5731554,59.4304571 C71.1846197,59.4304571 71.6590246,59.3032951 71.9963842,59.0489672 C72.3337439,58.7946393 72.5024212,58.429968 72.5024212,57.9549423 C72.5024212,57.4967317 72.3337439,57.1436206 71.9963842,56.8955984 C71.6590246,56.6475761 71.1846197,56.5235668 70.5731554,56.5235668 L67.8405559,56.5235668 L67.8405559,59.4304571 Z M67.8405559,63.5858599 L70.5731554,63.5858599 C71.3153466,63.5858599 71.8899036,63.4460867 72.2968437,63.1665362 C72.7037837,62.8869857 72.9072507,62.4886848 72.9072507,61.9716215 C72.9072507,61.4797808 72.7016753,61.0972437 72.2905182,60.8239989 C71.8793611,60.550754 71.3069126,60.4141336 70.5731554,60.4141336 L67.8405559,60.4141336 L67.8405559,63.5858599 Z M79.6679001,64.5695364 L79.6679001,55.5272791 L80.7052758,55.5272791 L80.7052758,64.5695364 L79.6679001,64.5695364 Z M87.8328019,62.2869024 L86.8207281,64.5695364 L85.7200977,64.5695364 L89.7873696,55.5272791 L90.862698,55.5272791 L94.917319,64.5695364 L93.7913868,64.5695364 L92.7793129,62.2869024 L87.8328019,62.2869024 Z M90.2934065,56.7064298 L88.2755842,61.2906147 L92.3428561,61.2906147 L90.2934065,56.7064298 Z" id="S-E-N-N-O-B-I-A" fill="#373737"></path>
                <g id="senn_logo_1024" transform="translate(25.909091, 0.000000)">
                    <mask id="mask-2" fill="white">
                        <use xlink:href="#path-1"></use>
                    </mask>
                    <g id="Clip-2"></g>
                    <polygon id="Fill-1" fill="#D9F0F7" mask="url(#mask-2)" points="-0.220315399 -0.219624274 43.4021336 -0.219624274 43.4021336 43.2659819 -0.220315399 43.2659819"></polygon>
                </g>
            </g>
        </g>
    </g>
</svg>